# Blender 4.2.3 LTS
# www.blender.org
mtllib CyrstalPanelHolder.mtl
o Cube
v 0.420340 0.811356 -0.306298
v -0.110184 0.811356 -0.612597
v -0.110184 0.107547 -0.060825
v -0.006863 1.505009 -0.517779
v -0.057508 0.107547 -0.030413
v 0.397878 1.143706 -0.526192
v -0.057508 0.107547 0.030413
v 0.404227 1.145465 0.515715
v -0.110184 0.107547 0.060825
v 0.008777 1.509340 0.517730
v -0.162860 0.107547 0.030413
v -0.399183 1.867059 0.525988
v -0.162860 0.107547 -0.030413
v -0.405533 1.865301 -0.515919
v 0.420340 0.811356 0.306298
v -0.110184 0.811356 0.612597
v -0.640708 0.811356 0.306298
v -0.640708 0.811356 -0.306298
v 0.411673 1.131186 -0.544403
v -0.007134 1.504934 -0.535702
v 0.418242 1.133006 0.533570
v 0.009048 1.509415 0.535653
v -0.412978 1.879579 0.544199
v -0.419548 1.877760 -0.533775
v 0.346517 1.148184 -0.485448
v -0.031940 1.476585 -0.477907
v 0.352381 1.149808 0.476686
v -0.017497 1.480585 0.478319
v -0.389517 1.816154 0.486172
v -0.395380 1.814531 -0.475962
vn 0.8273 -0.5617 -0.0000
vn -0.1884 0.0203 -0.9819
vn -0.2002 0.0164 -0.9796
vn 0.0685 0.0999 -0.9926
vn 0.4137 -0.5617 0.7165
vn 0.4206 -0.5409 0.7284
vn 0.4184 -0.5476 0.7246
vn 0.9999 0.0167 -0.0039
vn -0.4137 -0.5617 0.7165
vn 0.0912 0.0937 0.9914
vn -0.1830 0.0125 0.9830
vn -0.1762 0.0146 0.9842
vn -0.8273 -0.5617 -0.0000
vn -0.3075 -0.0263 0.9512
vn 0.5122 0.5610 0.6504
vn 0.5149 0.5585 0.6503
vn -0.4137 -0.5617 -0.7165
vn -0.9786 0.2058 0.0036
vn 0.4137 -0.5617 -0.7165
vn 0.4169 -0.5521 -0.7220
vn 0.4183 -0.5479 -0.7245
vn -0.3186 -0.0224 -0.9476
vn -0.0000 -1.0000 -0.0000
vn 0.6681 0.7440 -0.0109
vn 0.6669 0.7451 -0.0081
vn 0.6670 0.7450 -0.0080
vn 0.6726 0.7399 -0.0105
vn 0.6725 0.7401 -0.0103
vn 0.6681 0.7439 -0.0155
vn 0.6636 0.7480 -0.0104
vn 0.6638 0.7479 -0.0102
vn 0.6693 0.7429 -0.0082
vn 0.6693 0.7429 -0.0081
vn 0.6681 0.7440 -0.0093
vn 0.4866 0.5630 -0.6681
vn 0.4924 0.5577 -0.6681
vn 0.4925 0.5577 -0.6681
vn 0.0851 0.9964 -0.0022
vn 0.9815 0.1913 -0.0063
vn 0.4983 0.5525 -0.6682
vn 0.5094 0.5634 0.6504
vn 0.4271 -0.5199 0.7398
vn 0.4228 -0.5338 -0.7323
vt 0.833333 0.500000
vt 0.833333 0.716182
vt 0.666667 0.716182
vt 0.666667 0.500000
vt 1.000000 0.716182
vt 1.000000 1.000000
vt 0.833333 1.000000
vt 0.500000 0.716182
vt 0.500000 0.500000
vt 0.666667 1.000000
vt 0.333333 0.716182
vt 0.333333 0.500000
vt 0.500000 1.000000
vt 0.166667 0.716182
vt 0.166667 0.500000
vt 0.333333 1.000000
vt 0.250000 0.481970
vt 0.049108 0.365985
vt -0.000000 0.716182
vt -0.000000 0.500000
vt 0.166667 1.000000
vt 1.000000 0.500000
vt -0.000000 1.000000
vt 0.750000 0.490000
vt 0.957846 0.370000
vt 0.957846 0.130000
vt 0.750000 0.010000
vt 0.542154 0.130000
vt 0.542154 0.370000
vt 0.450892 0.365985
vt 0.457846 0.370000
vt 0.250000 0.490000
vt 0.450892 0.134015
vt 0.457846 0.130000
vt 0.250000 0.018030
vt 0.250000 0.010000
vt 0.049108 0.134015
vt 0.042154 0.130000
vt 0.042154 0.370000
s 1
usemtl Material
f 4/17/15 14/18/16 30/18/16 26/17/15
f 3/24/23 5/25/23 7/26/23 9/27/23 11/28/23 13/29/23
f 4/17/24 6/30/25 19/31/26 20/32/24
f 6/30/25 8/33/27 21/34/28 19/31/26
f 8/33/27 10/35/29 22/36/29 21/34/28
f 10/35/29 12/37/30 23/38/31 22/36/29
f 12/37/30 14/18/32 24/39/33 23/38/31
f 14/18/32 4/17/24 20/32/24 24/39/33
f 25/30/34 26/17/34 30/18/34 29/37/34 28/35/34 27/33/34
f 12/37/35 10/35/36 28/35/37 29/37/35
f 8/33/38 6/30/38 25/30/38 27/33/38
f 14/18/39 12/37/39 29/37/39 30/18/39
f 10/35/36 8/33/40 27/33/40 28/35/37
f 6/30/41 4/17/15 26/17/15 25/30/41
usemtl Material.001
f 7/4/5 15/3/6 16/8/7 9/9/5
f 1/2/8 19/7/8 21/10/8 15/3/8
f 11/12/13 17/11/13 18/14/13 13/15/13
f 16/8/12 22/13/11 23/16/14 17/11/14
f 3/22/19 2/5/20 1/2/21 5/1/19
f 18/14/22 24/21/22 20/23/3 2/19/2
usemtl Material.002
f 5/1/1 1/2/1 15/3/1 7/4/1
f 2/5/2 20/6/3 19/7/4
f 9/9/9 16/8/9 17/11/9 11/12/9
f 21/10/10 22/13/11 16/8/12
f 13/15/17 18/14/17 2/19/17 3/20/17
f 17/11/18 23/16/18 24/21/18 18/14/18
f 15/3/6 21/10/42 16/8/7
f 1/2/21 2/5/20 19/7/43
