# Blender 4.2.3 LTS
# www.blender.org
mtllib ModernistLectern.mtl
o Cube
v -0.261686 1.702765 0.204918
v -0.261686 1.702765 -0.204175
v 0.193628 1.264581 -0.204175
v 0.193628 1.264581 0.204918
v 0.431722 1.131379 0.468837
v 0.431722 1.131379 -0.468094
v -0.403915 1.935580 -0.468094
v -0.403915 1.935580 0.468837
v 0.300874 1.214774 -0.323464
v -0.325233 1.826462 -0.323464
v 0.300874 1.214774 0.324214
v -0.325233 1.826462 0.324214
v 0.053860 0.864831 0.068214
v 0.128667 1.254211 0.130998
v 0.046264 1.002316 0.059220
v 0.041845 1.128780 0.057122
v 0.500000 0.006056 -0.500000
v -0.500000 -0.006056 -0.500000
v 0.500000 0.006056 0.500000
v -0.500000 -0.006056 0.500000
v 0.073659 0.723227 0.087370
v 0.107586 0.550112 0.120112
v 0.292040 0.189254 0.294832
v -0.225257 1.552947 0.130998
v -0.138233 1.237028 0.057122
v -0.139389 1.064167 0.059220
v -0.135995 0.892540 0.068214
v -0.140989 0.733796 0.087370
v -0.160881 0.552284 0.120112
v -0.307866 0.183196 0.294832
v 0.128668 1.254211 -0.130287
v 0.041845 1.128780 -0.056519
v 0.046264 1.002316 -0.058691
v 0.053860 0.864831 -0.067764
v 0.073659 0.723227 -0.086996
v 0.107586 0.550112 -0.119829
v 0.292040 0.189255 -0.294737
v -0.307866 0.183196 -0.294737
v -0.160881 0.552284 -0.119829
v -0.140989 0.733796 -0.086996
v -0.135995 0.892540 -0.067764
v -0.139389 1.064167 -0.058691
v -0.138233 1.237028 -0.056519
v -0.225257 1.552947 -0.130287
vn 0.0068 0.0146 -0.9999
vn 0.6934 0.7205 -0.0000
vn -0.8111 -0.5849 -0.0000
vn -0.6836 -0.7057 -0.1860
vn -0.5375 -0.8433 -0.0000
vn -0.6836 -0.7057 0.1860
vn -0.6575 -0.6773 -0.3302
vn -0.4212 -0.9070 -0.0000
vn -0.6575 -0.6773 0.3302
vn -0.8895 -0.4570 -0.0000
vn -0.0084 0.7403 0.6723
vn 0.6610 0.7504 -0.0000
vn -0.7017 0.7124 -0.0000
vn -0.2349 -0.3083 -0.9218
vn 0.0121 -0.9999 -0.0000
vn 0.0121 0.1276 -0.9918
vn -0.0084 0.7404 -0.6721
vn 0.0141 0.0591 -0.9982
vn -0.4927 -0.5410 -0.6816
vn 0.0048 0.1823 -0.9832
vn -0.0019 0.4321 -0.9018
vn -0.9717 -0.2363 -0.0000
vn -0.9641 -0.2656 -0.0000
vn -1.0000 0.0067 -0.0000
vn -0.9998 -0.0198 -0.0000
vn -0.9995 0.0314 -0.0000
vn -0.9940 0.1089 -0.0000
vn -0.9290 0.3700 -0.0000
vn 0.1576 -0.9875 -0.0000
vn 0.8222 -0.5691 -0.0000
vn 0.9994 0.0349 -0.0000
vn 0.9985 0.0552 -0.0000
vn 0.9904 0.1385 -0.0000
vn 0.9813 0.1923 -0.0000
vn 0.8904 0.4551 -0.0000
vn -0.4928 -0.5411 0.6814
vn -0.2352 -0.3086 0.9216
vn 0.0066 0.0141 0.9999
vn 0.0140 0.0586 0.9982
vn 0.0120 0.1271 0.9918
vn 0.0048 0.1818 0.9833
vn -0.0019 0.4317 0.9020
vt 0.000000 0.000000
s 0
usemtl Material
f 43/1/1 32/1/1 33/1/1 42/1/1
f 6/1/2 7/1/2 8/1/2 5/1/2
f 12/1/3 8/1/3 7/1/3 10/1/3
f 10/1/4 7/1/4 6/1/4 9/1/4
f 9/1/5 6/1/5 5/1/5 11/1/5
f 11/1/6 5/1/6 8/1/6 12/1/6
f 3/1/7 2/1/7 10/1/7 9/1/7
f 4/1/8 3/1/8 9/1/8 11/1/8
f 1/1/9 4/1/9 11/1/9 12/1/9
f 2/1/10 1/1/10 12/1/10 10/1/10
f 23/1/11 30/1/11 20/1/11 19/1/11
f 37/1/12 23/1/12 19/1/12 17/1/12
f 38/1/13 18/1/13 20/1/13 30/1/13
f 44/1/14 31/1/14 32/1/14 43/1/14
f 18/1/15 17/1/15 19/1/15 20/1/15
f 41/1/16 34/1/16 35/1/16 40/1/16
f 38/1/17 37/1/17 17/1/17 18/1/17
f 42/1/18 33/1/18 34/1/18 41/1/18
f 2/1/19 3/1/19 31/1/19 44/1/19
f 40/1/20 35/1/20 36/1/20 39/1/20
f 39/1/21 36/1/21 37/1/21 38/1/21
f 2/1/22 44/1/22 24/1/22 1/1/22
f 44/1/23 43/1/23 25/1/23 24/1/23
f 43/1/24 42/1/24 26/1/24 25/1/24
f 42/1/25 41/1/25 27/1/25 26/1/25
f 41/1/26 40/1/26 28/1/26 27/1/26
f 40/1/27 39/1/27 29/1/27 28/1/27
f 39/1/28 38/1/28 30/1/28 29/1/28
f 3/1/29 4/1/29 14/1/29 31/1/29
f 31/1/30 14/1/30 16/1/30 32/1/30
f 32/1/31 16/1/31 15/1/31 33/1/31
f 33/1/32 15/1/32 13/1/32 34/1/32
f 34/1/33 13/1/33 21/1/33 35/1/33
f 35/1/34 21/1/34 22/1/34 36/1/34
f 36/1/35 22/1/35 23/1/35 37/1/35
f 4/1/36 1/1/36 24/1/36 14/1/36
f 14/1/37 24/1/37 25/1/37 16/1/37
f 16/1/38 25/1/38 26/1/38 15/1/38
f 15/1/39 26/1/39 27/1/39 13/1/39
f 13/1/40 27/1/40 28/1/40 21/1/40
f 21/1/41 28/1/41 29/1/41 22/1/41
f 22/1/42 29/1/42 30/1/42 23/1/42
