# Blender 4.2.3 LTS
# www.blender.org
mtllib StickLectern.mtl
o Cube
v -0.451848 1.885773 0.468837
v -0.451848 1.885773 -0.468094
v 0.383790 1.081573 -0.468094
v 0.383790 1.081573 0.468837
v 0.431722 1.131379 0.468837
v 0.431722 1.131379 -0.468094
v -0.403915 1.935580 -0.468094
v -0.403915 1.935580 0.468837
v 0.229189 0.000000 0.281305
v -0.395342 1.905044 -0.339011
v 0.225446 0.000000 0.236477
v -0.385725 1.895427 -0.405822
v 0.274460 0.000000 0.272603
v -0.371483 1.881185 -0.351981
v 0.270716 0.000000 0.227774
v -0.361866 1.871568 -0.418792
v 0.264321 0.000000 -0.246208
v -0.350627 1.860329 0.429079
v 0.219458 0.000000 -0.242461
v -0.371629 1.881331 0.434658
v 0.255612 0.000000 -0.291513
v -0.366991 1.876693 0.361598
v 0.210749 0.000000 -0.287766
v -0.387993 1.897695 0.367178
v -0.258179 0.000000 -0.275180
v 0.199304 1.310398 0.174897
v -0.254513 0.000000 -0.231269
v 0.207131 1.302571 0.209310
v -0.302523 0.000000 -0.266655
v 0.176840 1.332862 0.181577
v -0.298856 0.000000 -0.222745
v 0.184667 1.325034 0.215990
v -0.296389 0.000000 0.244862
v 0.185235 1.324467 -0.210697
v -0.251839 0.000000 0.241142
v 0.207764 1.301938 -0.213440
v -0.287741 0.000000 0.289851
v 0.183568 1.326134 -0.177518
v -0.243191 0.000000 0.286131
v 0.206096 1.303606 -0.180261
vn -0.6934 -0.7205 -0.0000
vn 0.6934 0.7205 -0.0000
vn -0.7205 0.6934 -0.0000
vn -0.0000 -0.0000 -1.0000
vn 0.7205 -0.6934 -0.0000
vn -0.0000 -0.0000 1.0000
vn -0.9485 -0.3159 -0.0227
vn -0.3990 -0.4120 -0.8192
vn 0.9441 0.3289 0.0213
vn 0.3977 0.4043 0.8236
vn -0.0000 -1.0000 -0.0000
vn 0.7071 0.7071 -0.0000
vn 0.0277 -0.3319 0.9429
vn -0.9252 -0.3461 0.1555
vn -0.0328 0.3178 -0.9476
vn 0.9207 0.3591 -0.1526
vn 0.9466 -0.2762 -0.1665
vn 0.0958 -0.3467 0.9331
vn -0.9435 0.2861 0.1671
vn -0.0944 0.3502 -0.9319
vn -0.1799 -0.2639 -0.9476
vn 0.9329 -0.3522 -0.0758
vn 0.1823 0.2717 0.9450
vn -0.9297 0.3605 0.0753
vt 0.000000 0.000000
vt 0.375000 0.000000
vt 0.625000 0.000000
vt 0.625000 0.250000
vt 0.375000 0.250000
vt 0.625000 0.500000
vt 0.375000 0.500000
vt 0.625000 0.750000
vt 0.375000 0.750000
vt 0.625000 1.000000
vt 0.375000 1.000000
vt 0.125000 0.500000
vt 0.125000 0.750000
vt 0.875000 0.500000
vt 0.875000 0.750000
s 0
usemtl Material
f 2/1/1 3/1/1 4/1/1 1/1/1
f 6/1/2 7/1/2 8/1/2 5/1/2
f 1/1/3 8/1/3 7/1/3 2/1/3
f 2/1/4 7/1/4 6/1/4 3/1/4
f 3/1/5 6/1/5 5/1/5 4/1/5
f 4/1/6 5/1/6 8/1/6 1/1/6
usemtl Material.001
f 9/2/7 10/3/7 12/4/7 11/5/7
f 11/5/8 12/4/8 16/6/8 15/7/8
f 15/7/9 16/6/9 14/8/9 13/9/9
f 13/9/10 14/8/10 10/10/10 9/11/10
f 11/12/11 15/7/11 13/9/11 9/13/11
f 16/6/12 12/14/12 10/15/12 14/8/12
f 17/2/13 18/3/13 20/4/13 19/5/13
f 19/5/14 20/4/14 24/6/14 23/7/14
f 23/7/15 24/6/15 22/8/15 21/9/15
f 21/9/16 22/8/16 18/10/16 17/11/16
f 19/12/11 23/7/11 21/9/11 17/13/11
f 24/6/12 20/14/12 18/15/12 22/8/12
f 25/2/17 26/3/17 28/4/17 27/5/17
f 27/5/18 28/4/18 32/6/18 31/7/18
f 31/7/19 32/6/19 30/8/19 29/9/19
f 29/9/20 30/8/20 26/10/20 25/11/20
f 27/12/11 31/7/11 29/9/11 25/13/11
f 32/6/12 28/14/12 26/15/12 30/8/12
f 33/2/21 34/3/21 36/4/21 35/5/21
f 35/5/22 36/4/22 40/6/22 39/7/22
f 39/7/23 40/6/23 38/8/23 37/9/23
f 37/9/24 38/8/24 34/10/24 33/11/24
f 35/12/11 39/7/11 37/9/11 33/13/11
f 40/6/12 36/14/12 34/15/12 38/8/12
