# Blender 4.2.3 LTS
# www.blender.org
mtllib StonePanelHolder.mtl
o Cube
v 0.329842 0.982728 -0.329842
v 0.329842 0.982728 0.329842
v -0.329842 0.982728 -0.329842
v -0.329842 0.982728 0.329842
v -0.000000 0.982728 -0.466466
v 0.000000 0.301654 -0.386378
v -0.000000 0.733604 -0.429206
v 0.272570 0.327436 -0.272570
v 0.303495 0.733604 -0.303495
v 0.386378 0.301654 0.000000
v 0.429206 0.733604 0.000000
v 0.272570 0.327436 0.272570
v 0.303495 0.733604 0.303495
v 0.000000 0.301654 0.386378
v -0.000000 0.733604 0.429206
v -0.272570 0.327436 0.272570
v -0.303495 0.733604 0.303495
v -0.386378 0.301654 0.000000
v -0.429206 0.733604 0.000000
v -0.272570 0.327436 -0.272570
v -0.303495 0.733604 -0.303495
v 0.466466 0.982728 -0.000000
v -0.000000 0.982728 0.466466
v -0.466466 0.982728 -0.000000
v 0.326277 0.941386 0.326277
v -0.461425 0.941386 0.000000
v 0.461425 0.941386 0.000000
v 0.326277 0.941386 -0.326277
v -0.326277 0.941386 0.326277
v -0.000000 0.941386 0.461425
v -0.000000 0.941386 -0.461425
v -0.326277 0.941386 -0.326277
v 0.366984 0.136746 -0.366984
v 0.366984 0.136746 0.366984
v -0.366984 0.136746 0.366984
v -0.366984 0.136746 -0.366984
v 0.402438 0.089605 0.402438
v 0.402438 0.089605 -0.402438
v -0.402438 0.089605 -0.402438
v -0.402438 0.089605 0.402438
v 0.514704 0.000000 0.514704
v 0.514704 0.000000 -0.514704
v -0.514704 0.000000 -0.514704
v -0.514704 0.000000 0.514704
v -0.425169 0.071462 0.425169
v -0.425169 0.071462 -0.425169
v 0.425169 0.071462 -0.425169
v 0.425169 0.071462 0.425169
v 0.402438 0.089605 0.402438
v 0.402438 0.089605 -0.402438
v -0.402438 0.089605 -0.402438
v -0.402438 0.089605 0.402438
v -0.425169 0.071462 -0.425169
v 0.425169 0.071462 0.425169
v -0.425169 0.071462 0.425169
v 0.425169 0.071462 -0.425169
v 0.408845 0.101204 0.408845
v 0.408845 0.101204 -0.408845
v -0.408845 0.101204 -0.408845
v -0.408845 0.101204 0.408845
v -0.431576 0.083061 -0.431576
v 0.431576 0.083061 0.431576
v -0.431576 0.083061 0.431576
v 0.431576 0.083061 -0.431576
v 0.378025 1.104702 -0.534609
v -0.000000 1.482728 -0.654074
v -0.378025 1.860753 0.534609
v -0.000000 1.482728 0.654074
v -0.378025 1.860753 -0.534609
v -0.462500 1.945228 -0.000000
v 0.378025 1.104702 0.534609
v 0.462500 1.020228 0.000000
vn 0.7945 -0.5502 -0.2570
vn 0.3788 -0.1418 -0.9145
vn -0.9181 -0.1120 -0.3803
vn 0.3858 -0.0950 -0.9177
vn 0.9145 -0.1418 0.3788
vn 0.9181 -0.1120 0.3803
vn 0.9177 -0.0950 -0.3858
vn 0.9145 -0.1418 -0.3788
vn 0.3803 -0.1120 -0.9181
vn 0.9177 -0.0950 0.3858
vn -0.3788 -0.1418 0.9145
vn -0.9181 -0.1120 0.3803
vn 0.3858 -0.0950 0.9177
vn -0.3788 -0.1418 -0.9145
vn 0.9181 -0.1120 -0.3803
vn -0.3858 -0.0950 0.9177
vn 0.3788 -0.1418 0.9145
vn -0.3803 -0.1120 0.9181
vn -0.9177 -0.0950 0.3858
vn -0.3803 -0.1120 -0.9181
vn -0.9177 -0.0950 -0.3858
vn -0.9145 -0.1418 0.3788
vn 0.3803 -0.1120 0.9181
vn -0.3858 -0.0950 -0.9177
vn -0.0000 1.0000 -0.0000
vn -0.9145 -0.1418 -0.3788
vn -0.0000 0.6011 0.7992
vn 0.7968 0.5342 0.2822
vn 0.7968 0.5342 -0.2822
vn 0.9932 -0.1168 -0.0000
vn 0.2822 0.5342 -0.7968
vn -0.2822 0.5342 -0.7968
vn -0.0000 -0.1168 -0.9932
vn -0.7968 0.5342 -0.2822
vn -0.7968 0.5342 0.2822
vn -0.9932 -0.1168 -0.0000
vn -0.2822 0.5342 0.7968
vn 0.2822 0.5342 0.7968
vn -0.0000 -0.1168 0.9932
vn -0.6238 0.7816 -0.0000
vn -0.0000 0.6011 -0.7992
vn -0.7992 0.6011 -0.0000
vn 0.7992 0.6011 -0.0000
vn -0.0000 -1.0000 -0.0000
vn 0.6238 0.7816 -0.0000
vn -0.0000 0.7816 0.6238
vn -0.0000 0.7816 -0.6238
vn -0.0000 0.4835 -0.8753
vn -0.0000 -0.4835 0.8753
vn -0.8753 0.4835 -0.0000
vn -0.8753 -0.4835 -0.0000
vn -0.0000 0.4835 0.8753
vn 0.8753 -0.4835 -0.0000
vn -0.0000 -0.4835 -0.8753
vn 0.8753 0.4835 -0.0000
vn 0.7071 0.7071 -0.0000
vn -0.9688 -0.0503 -0.2429
vn -0.4480 -0.2593 0.8556
vn -0.9688 -0.0503 0.2429
vn 0.7945 -0.5502 0.2570
vn 0.0202 -0.5346 -0.8449
vn -0.4480 -0.2593 -0.8556
vn 0.0202 -0.5346 0.8449
vt 0.875000 1.000000
vt 0.750000 1.000000
vt 1.000000 1.000000
vt 0.875000 1.000000
vt 0.125000 1.000000
vt 0.250000 1.000000
vt 0.125000 1.000000
vt 1.000000 0.500000
vt 0.875000 0.500000
vt 0.625000 1.000000
vt 0.625000 1.000000
vt 0.750000 0.500000
vt 0.625000 0.500000
vt 0.375000 1.000000
vt 0.500000 1.000000
vt 0.500000 0.500000
vt 0.000000 1.000000
vt 0.375000 0.500000
vt 0.250000 0.500000
vt 0.125000 0.500000
vt 0.000000 0.500000
vt 0.750000 0.490000
vt 0.580294 0.419706
vt 0.510000 0.250000
vt 0.580294 0.080294
vt 0.750000 0.010000
vt 0.919706 0.080294
vt 0.990000 0.250000
vt 0.919706 0.419706
vt 0.000000 0.000000
vt 0.125000 0.625000
vt 0.125000 0.750000
vt 0.250000 0.750000
vt 0.375000 0.750000
vt 0.375000 0.625000
s 0
usemtl Material
f 69/20/56 70/31/56 67/32/56 68/33/56 71/34/56 72/35/56 65/18/56 66/19/56
usemtl Material.001
f 35/30/27 40/30/27 37/30/27 34/30/27
f 34/30/30 33/30/30 10/12/30
f 33/30/33 36/30/33 6/8/33
f 36/30/36 35/30/36 18/19/36
f 35/30/39 34/30/39 14/16/39
f 46/30/40 43/30/40 44/30/40 45/30/40
f 33/30/41 38/30/41 39/30/41 36/30/41
f 36/30/42 39/30/42 40/30/42 35/30/42
f 34/30/43 37/30/43 38/30/43 33/30/43
f 41/30/44 44/30/44 43/30/44 42/30/44
f 48/30/45 41/30/45 42/30/45 47/30/45
f 45/30/46 44/30/46 41/30/46 48/30/46
f 47/30/47 42/30/47 43/30/47 46/30/47
f 54/30/49 62/30/49 63/30/49 55/30/49
f 55/30/51 63/30/51 61/30/51 53/30/51
f 58/30/47 64/30/47 61/30/47 59/30/47
f 60/30/46 63/30/46 62/30/46 57/30/46
f 57/30/45 62/30/45 64/30/45 58/30/45
f 59/30/40 61/30/40 63/30/40 60/30/40
f 56/30/53 64/30/53 62/30/53 54/30/53
f 53/30/54 61/30/54 64/30/54 56/30/54
usemtl Material.002
f 1/1/1 65/1/1 72/2/1 22/2/1
f 9/1/2 7/3/2 31/3/2 28/4/2
f 32/5/3 26/6/3 24/6/3 3/7/3
f 6/8/4 7/3/4 9/1/4 8/9/4
f 13/10/5 11/2/5 27/2/5 25/11/5
f 25/11/6 27/2/6 22/2/6 2/10/6
f 8/9/7 9/1/7 11/2/7 10/12/7
f 11/2/8 9/1/8 28/4/8 27/2/8
f 28/4/9 31/3/9 5/3/9 1/1/9
f 10/12/10 11/2/10 13/10/10 12/13/10
f 17/14/11 15/15/11 30/15/11 29/14/11
f 26/6/12 29/14/12 4/14/12 24/6/12
f 12/13/13 13/10/13 15/15/13 14/16/13
f 7/17/14 21/7/14 32/5/14 31/17/14
f 27/2/15 28/4/15 1/1/15 22/2/15
f 14/16/16 15/15/16 17/14/16 16/18/16
f 15/15/17 13/10/17 25/11/17 30/15/17
f 29/14/18 30/15/18 23/15/18 4/14/18
f 16/18/19 17/14/19 19/6/19 18/19/19
f 31/17/20 32/5/20 3/7/20 5/17/20
f 18/19/21 19/6/21 21/7/21 20/20/21
f 19/6/22 17/14/22 29/14/22 26/6/22
f 30/15/23 25/11/23 2/10/23 23/15/23
f 20/20/24 21/7/24 7/17/24 6/21/24
f 6/22/25 20/23/25 18/24/25 16/25/25 14/26/25 12/27/25 10/28/25 8/29/25
f 21/7/26 19/6/26 26/6/26 32/5/26
f 12/13/28 34/30/28 10/12/28
f 10/12/29 33/30/29 8/9/29
f 8/9/31 33/30/31 6/8/31
f 6/21/32 36/30/32 20/20/32
f 20/20/34 36/30/34 18/19/34
f 18/19/35 35/30/35 16/18/35
f 16/18/37 35/30/37 14/16/37
f 14/16/38 34/30/38 12/13/38
f 46/30/25 53/30/25 56/30/25 47/30/25
f 37/30/25 49/30/25 50/30/25 38/30/25
f 47/30/25 56/30/25 54/30/25 48/30/25
f 39/30/25 51/30/25 52/30/25 40/30/25
f 52/30/48 60/30/48 57/30/48 49/30/48
f 49/30/50 57/30/50 58/30/50 50/30/50
f 40/30/25 52/30/25 49/30/25 37/30/25
f 45/30/25 55/30/25 53/30/25 46/30/25
f 38/30/25 50/30/25 51/30/25 39/30/25
f 48/30/25 54/30/25 55/30/25 45/30/25
f 50/30/52 58/30/52 59/30/52 51/30/52
f 51/30/55 59/30/55 60/30/55 52/30/55
f 24/6/57 70/6/57 69/7/57 3/7/57
f 23/15/58 68/15/58 67/14/58 4/14/58
f 4/14/59 67/14/59 70/6/59 24/6/59
f 22/2/60 72/2/60 71/10/60 2/10/60
f 5/3/61 66/3/61 65/1/61 1/1/61
f 3/7/62 69/7/62 66/17/62 5/17/62
f 2/10/63 71/10/63 68/15/63 23/15/63
