# Blender 4.2.3 LTS
# www.blender.org
mtllib WoodLectern.mtl
o Cube
v -0.366984 1.040028 -0.366984
v -0.366984 1.040028 0.366984
v 0.366984 1.040028 0.366984
v 0.366984 1.040028 -0.366984
v 0.366984 0.186746 -0.316984
v 0.366984 0.186746 0.316984
v -0.316984 0.186746 0.366984
v -0.366984 0.186746 -0.316984
v 0.402438 0.089605 0.402438
v 0.402438 0.089605 -0.402438
v -0.402438 0.089605 -0.402438
v -0.402438 0.089605 0.402438
v 0.514704 0.000000 0.514704
v 0.514704 0.000000 -0.514704
v -0.514704 0.000000 -0.514704
v -0.514704 0.000000 0.514704
v -0.425169 0.071462 0.425169
v -0.425169 0.071462 -0.425169
v 0.425169 0.071462 -0.425169
v 0.425169 0.071462 0.425169
v 0.402438 0.089605 0.402438
v 0.402438 0.089605 -0.402438
v -0.402438 0.089605 -0.402438
v -0.402438 0.089605 0.402438
v -0.425169 0.071462 -0.425169
v 0.425169 0.071462 0.425169
v -0.425169 0.071462 0.425169
v 0.425169 0.071462 -0.425169
v 0.408845 0.101204 0.408845
v 0.408845 0.101204 -0.408845
v -0.408845 0.101204 -0.408845
v -0.408845 0.101204 0.408845
v -0.431576 0.083061 -0.431576
v 0.431576 0.083061 0.431576
v -0.431576 0.083061 0.431576
v 0.431576 0.083061 -0.431576
v 0.316984 0.186746 0.366984
v 0.366984 0.990028 -0.316984
v 0.366984 0.990028 0.316984
v 0.316984 0.186746 -0.366984
v -0.366984 0.186746 0.316984
v -0.316984 0.990028 0.366984
v 0.316984 0.990028 0.366984
v 0.366984 0.136746 0.366984
v -0.366984 0.136746 0.366984
v -0.366984 0.990028 0.316984
v -0.316984 0.186746 -0.366984
v -0.366984 0.990028 -0.316984
v 0.366984 0.136746 -0.366984
v -0.366984 0.136746 -0.366984
v 0.316984 0.990028 -0.366984
v -0.316984 0.990028 -0.366984
v 0.316984 0.990028 -0.316984
v -0.316984 0.990028 -0.316984
v 0.316984 0.186746 -0.316984
v -0.316984 0.186746 -0.316984
v -0.316984 0.990028 -0.316984
v -0.316984 0.990028 0.316984
v -0.316984 0.186746 0.316984
v -0.316984 0.186746 -0.316984
v -0.316984 0.990028 0.316984
v 0.316984 0.990028 0.316984
v 0.316984 0.990028 0.316984
v 0.316984 0.990028 -0.316984
v 0.316984 0.186746 0.316984
v 0.316984 0.186746 -0.316984
v -0.316984 0.186746 0.316984
v 0.316984 0.186746 0.316984
v -0.388590 1.056259 -0.389027
v -0.388590 1.056259 0.389310
v 0.389746 1.056259 0.389310
v 0.389746 1.056259 -0.389027
v -0.364961 1.082635 -0.366108
v -0.364961 1.082635 0.366851
v 0.367997 1.082635 0.366851
v 0.367997 1.082635 -0.366108
v -0.428686 1.131379 -0.429833
v -0.428686 1.131379 0.430576
v 0.431722 1.131379 0.468837
v 0.431722 1.131379 -0.468094
v -0.403915 1.935580 -0.468094
v -0.403915 1.935580 0.468837
vn -0.0000 0.6011 0.7992
vn -0.0000 -1.0000 -0.0000
vn -0.0000 -0.0000 -1.0000
vn -0.0000 1.0000 -0.0000
vn -0.6238 0.7816 -0.0000
vn -0.0000 0.6011 -0.7992
vn -0.7992 0.6011 -0.0000
vn 0.7992 0.6011 -0.0000
vn 0.6238 0.7816 -0.0000
vn -0.0000 0.7816 0.6238
vn -0.0000 0.7816 -0.6238
vn -0.0000 0.4835 -0.8753
vn -0.0000 -0.4835 0.8753
vn -0.8753 0.4835 -0.0000
vn -0.8753 -0.4835 -0.0000
vn -0.0000 0.4835 0.8753
vn 0.8753 -0.4835 -0.0000
vn -0.0000 -0.4835 -0.8753
vn 0.8753 0.4835 -0.0000
vn 1.0000 -0.0000 -0.0000
vn -0.0000 -0.0000 1.0000
vn -1.0000 -0.0000 -0.0000
vn -0.0000 -0.8088 0.5880
vn -0.6006 -0.7995 -0.0000
vn -0.0000 -0.8052 -0.5929
vn 0.5806 -0.8142 -0.0000
vn -0.7448 0.6673 -0.0000
vn 0.7715 0.6362 -0.0000
vn -0.0000 0.6559 -0.7548
vn -0.0000 0.6483 0.7614
vn -0.0122 -0.8618 -0.5070
vn -0.0122 -0.8618 0.5070
vn -0.0444 -0.0461 0.9979
vn 0.6076 -0.7943 -0.0000
vn -0.0444 -0.0461 -0.9980
vn 0.6934 0.7205 -0.0000
vn -0.9995 0.0308 -0.0000
vn -0.6076 -0.7943 -0.0000
vt 0.000000 0.000000
s 0
usemtl Material
f 76/1/31 73/1/31 77/1/31 80/1/31
f 74/1/32 75/1/32 79/1/32 78/1/32
f 79/1/33 82/1/33 78/1/33
f 77/1/35 81/1/35 80/1/35
f 80/1/36 81/1/36 82/1/36 79/1/36
f 81/1/37 77/1/37 78/1/37 82/1/37
f 73/1/38 74/1/38 78/1/38 77/1/38
usemtl Material.001
f 45/1/1 12/1/1 9/1/1 44/1/1
f 18/1/5 15/1/5 16/1/5 17/1/5
f 49/1/6 10/1/6 11/1/6 50/1/6
f 50/1/7 11/1/7 12/1/7 45/1/7
f 44/1/8 9/1/8 10/1/8 49/1/8
f 13/1/2 16/1/2 15/1/2 14/1/2
f 20/1/9 13/1/9 14/1/9 19/1/9
f 17/1/10 16/1/10 13/1/10 20/1/10
f 19/1/11 14/1/11 15/1/11 18/1/11
f 24/1/12 32/1/12 29/1/12 21/1/12
f 26/1/13 34/1/13 35/1/13 27/1/13
f 21/1/14 29/1/14 30/1/14 22/1/14
f 27/1/15 35/1/15 33/1/15 25/1/15
f 30/1/11 36/1/11 33/1/11 31/1/11
f 32/1/10 35/1/10 34/1/10 29/1/10
f 29/1/9 34/1/9 36/1/9 30/1/9
f 31/1/5 33/1/5 35/1/5 32/1/5
f 22/1/16 30/1/16 31/1/16 23/1/16
f 28/1/17 36/1/17 34/1/17 26/1/17
f 25/1/18 33/1/18 36/1/18 28/1/18
f 23/1/19 31/1/19 32/1/19 24/1/19
f 6/1/20 39/1/20 3/1/20 44/1/20
f 39/1/20 38/1/20 4/1/20 3/1/20
f 5/1/20 6/1/20 44/1/20 49/1/20
f 38/1/20 5/1/20 49/1/20 4/1/20
f 7/1/21 42/1/21 2/1/21 45/1/21
f 42/1/21 43/1/21 3/1/21 2/1/21
f 43/1/21 37/1/21 44/1/21 3/1/21
f 37/1/21 7/1/21 45/1/21 44/1/21
f 46/1/22 41/1/22 45/1/22 2/1/22
f 41/1/22 8/1/22 50/1/22 45/1/22
f 48/1/22 46/1/22 2/1/22 1/1/22
f 8/1/22 48/1/22 1/1/22 50/1/22
f 47/1/3 40/1/3 49/1/3 50/1/3
f 51/1/3 52/1/3 1/1/3 4/1/3
f 40/1/3 51/1/3 4/1/3 49/1/3
f 52/1/3 47/1/3 50/1/3 1/1/3
f 2/1/23 3/1/23 71/1/23 70/1/23
f 1/1/24 2/1/24 70/1/24 69/1/24
f 4/1/25 1/1/25 69/1/25 72/1/25
f 3/1/26 4/1/26 72/1/26 71/1/26
f 69/1/27 70/1/27 74/1/27 73/1/27
f 71/1/28 72/1/28 76/1/28 75/1/28
f 72/1/29 69/1/29 73/1/29 76/1/29
f 70/1/30 71/1/30 75/1/30 74/1/30
f 75/1/34 76/1/34 80/1/34 79/1/34
usemtl Material.002
f 52/1/2 51/1/2 53/1/2 54/1/2
f 41/1/3 46/1/3 58/1/3 59/1/3
f 39/1/3 6/1/3 65/1/3 63/1/3
f 7/1/4 37/1/4 68/1/4 67/1/4
f 18/1/4 25/1/4 28/1/4 19/1/4
f 9/1/4 21/1/4 22/1/4 10/1/4
f 19/1/4 28/1/4 26/1/4 20/1/4
f 11/1/4 23/1/4 24/1/4 12/1/4
f 12/1/4 24/1/4 21/1/4 9/1/4
f 17/1/4 27/1/4 25/1/4 18/1/4
f 10/1/4 22/1/4 23/1/4 11/1/4
f 20/1/4 26/1/4 27/1/4 17/1/4
f 55/1/3 56/1/3 54/1/3 53/1/3
f 47/1/20 52/1/20 54/1/20 56/1/20
f 51/1/22 40/1/22 55/1/22 53/1/22
f 40/1/4 47/1/4 56/1/4 55/1/4
f 60/1/22 59/1/22 58/1/22 57/1/22
f 48/1/21 8/1/21 60/1/21 57/1/21
f 46/1/2 48/1/2 57/1/2 58/1/2
f 8/1/4 41/1/4 59/1/4 60/1/4
f 67/1/21 68/1/21 62/1/21 61/1/21
f 65/1/20 66/1/20 64/1/20 63/1/20
f 5/1/21 38/1/21 64/1/21 66/1/21
f 38/1/2 39/1/2 63/1/2 64/1/2
f 37/1/22 43/1/22 62/1/22 68/1/22
f 43/1/2 42/1/2 61/1/2 62/1/2
f 42/1/20 7/1/20 67/1/20 61/1/20
f 6/1/4 5/1/4 66/1/4 65/1/4
